<?xml version="1.0" standalone="no"?>
<svg xmlns="http://www.w3.org/2000/svg" version="1.1" xmlns:xlink="http://www.w3.org/1999/xlink" width="512" height="512" x="0" y="0" viewBox="0 0 512 512" style="enable-background:new 0 0 512 512" xml:space="preserve"><g><path d="M338.176 195.387c0-45.312-36.864-82.176-82.176-82.176s-82.176 36.864-82.176 82.176 36.864 82.176 82.176 82.176 82.176-36.864 82.176-82.176zM256 227.563c-17.77 0-32.176-14.406-32.176-32.176S238.23 163.211 256 163.211s32.176 14.406 32.176 32.176S273.77 227.563 256 227.563z" fill="#ffffff" opacity="1" data-original="#000000"/><path d="M256 512.006s195.169-165.539 195.169-316.619C451.169 87.598 363.789.217 256 .217S60.831 87.598 60.831 195.387C60.831 344.703 256 512.006 256 512.006zM135.72 284.832c-16.515-33.295-24.889-63.389-24.889-89.445 0-38.776 15.1-75.231 42.519-102.65S217.224 50.218 256 50.218s75.231 15.1 102.65 42.519 42.519 63.874 42.519 102.65c0 26.467-8.378 56.818-24.9 90.21-14.391 29.084-34.755 60.047-60.525 92.03-21.256 26.38-42.737 49.108-59.601 65.844-16.906-16.895-38.471-39.841-59.806-66.41-25.81-32.143-46.205-63.173-60.617-92.229z" fill="#ffffff" opacity="1" data-original="#000000"/></g></svg>